<?xml version="1.0" encoding="UTF-8"?>
<svg version="1.1" viewBox="400 500 1000 1000" width="500" height="500" xmlns="http://www.w3.org/2000/svg" fill="none">
<path transform="translate(895,609)" d="m0 0h8l9 5 4 5v2h39l25 2 37 7 26 7 32 11 22 10 6 3 3-1h10l8 4 3 3 3 10 16 10 19 13 12 9 13 11 13 12 17 17 9 11 9 10 13 17 5 7 13 7 6 7 1 8-2 6 1 5 11 21 12 29 8 27 6 28v11l-2 4-7 4-7 1h-146l-23-3-12-4-20-9-15-8-7 2-8-1-7-5-4-8v-9l5-8-1-5-4-5-17-13-11-8-4-1-2 6-6 10-7 6-9 4-13-5-19-8-15-3-17-2h-21l-24 3-16 5-14 6-16 10-10 8-6 6h-2l-2 4-7 7-10 14-8 15-6 18-4 20v27l5 26 5 13 8 15 10 13 4 4v2l4 2 10 9 13 8 13 6 14 4 7 1h22l12-3 7-3 14-1 6 4 6 6 1 3 8-1 29-7 23-8 24-11 16-9 12-11 12-9 9-6 16-7 21-7 22-3h159l8 4 4 4 1 4v7l-6 25-10 29-11 26-8 16-9 17 1 5 2 4v8l-5 9-11 5-7-1-3-1-3 9-10 11-9 11-7 8h-2l-2 4-11 11-8 7-13 11-17 13-14 10-21 13-23 13-19 9-19 8-24 8-41 11-4 8-6 5-8 3-9-2-7-2-22 2h-48l-34-3-22-4-25-6-32-11-26-11-17-8-24-14-18-12-16-12-11-9-13-11-22-22-9-11-11-13-14-19-11-17-12-21-8-16-9-20-12-36-7-27-5-30-3-27v-41l2-21 5-33 9-36 9-25 10-24 11-22 11-19 16-24 11-14 11-13 12-13 17-17 11-9 9-8 19-14 15-10 24-14 15-8 24-10 19-7 19-5h11l15-4 26-5 10-1 5-5 5-6z" fill="#2E2325"/>
<path transform="translate(1141,1048)" d="m0 0h159l8 4 4 4 1 4v7l-6 25-10 29-11 26-8 16-9 17 1 5 2 4v8l-5 9-11 5-7-1-3-1-3 9-10 11-9 11-7 8h-2l-2 4-11 11-8 7-13 11-17 13-14 10-21 13-23 13-19 9-19 8-24 8-38 10-2-3-5-20-2-7-2-12-5-18-4-20-5-21-2-13-6-20-1-11-7-26-2-11-4-15-4-21-5-19 24-6 15-4 20-7 24-11 16-9 12-11 12-9 9-6 16-7 21-7z" fill="#349765"/>
<path transform="translate(1130,678)" d="m0 0 5 2 30 20 12 9 13 11 13 12 17 17 9 11 9 10 13 17 5 7 13 7 6 7 1 8-2 6 1 5 11 21 12 29 8 27 6 28v11l-2 4-7 4-7 1h-146l-23-3-12-4-20-9-15-8-7 2-8-1-7-5-4-8v-9l5-8-1-5-4-5-17-13-11-8 1-6 12-22 6-10 10-18 13-23 10-17 9-16 16-28 13-23 11-19z" fill="#E06C3B"/>
<path transform="translate(826,1137)" d="m0 0 25 10 16 4 14 2h18l19-2 4 4 6 23 5 23 6 29 5 23 6 27 9 41 3 15v8l-7 3-7 1h-50l-44-7-36-9-25-9-21-9-19-10-13-7-11-7-12-8-12-9-13-10-2-6 4-5 8-7 10-9 11-9 16-15 8-7 14-12 10-9 8-7 15-13 10-9 8-7z" fill="#36A2CE"/>
<path transform="translate(641,795)" d="m0 0 5 2 10 8v2l4 2 7 7 8 7 24 22 8 7 10 10 8 7 17 16 10 9 16 15 7 7 1 4-7 15-6 15-6 19-2 14-1 19v12l1 25-2 2-17 2-45 3-25 3-60 4-21 3-6-1-3-6-2-13-1-23v-31l1-20 6-34 5-21 9-27 8-20 14-28 10-17 7-10 7-9z" fill="#ACADD0"/>
<path transform="translate(879,623)" d="m0 0h2l4 58 3 65 2 38 3 35v22l-15 5-16 4-21 9-13 8-11 8-15 12-4 1-5-3-4-5-11-9-16-15-12-11-5-4-14-14-8-7-6-5v-2l-4-2-9-9-8-7-10-9-8-8-8-7-3-2-1-5 7-8 8-7 9-9 11-9 10-8 22-15 11-7 16-9 29-14 38-14 4-5 2-6-1-10-5-7-4-2 20-5 26-5z" fill="#DC728E"/>
<path transform="translate(917,621)" d="m0 0h38l25 2 37 7 26 7 32 11 22 10 6 3-6 9-14 25-8 13-6 11-21 36-13 23-12 21-13 23-9 16-8 13-9-1-27-7-11-2-17-2-1-1-4-72-6-109z" fill="#DE433F"/>
<path transform="translate(749,1077)" d="m0 0h19l8 12 8 11 7 9 2 3v6l-16 16h-2v2l-9 7-10 9-12 11-9 8-6 5h-2v2l-11 9-9 9-8 7-6 5h-2v2l-8 7-11 10-7 2-8-6-10-11-11-14-10-15-12-20-8-16-4-9-6-14-7-19-2-7v-6l6-2 7-1 27-2 42-4 45-3z" fill="#295C92"/>
<path transform="translate(1141,1048)" d="m0 0h159l8 4 4 4 1 4v7l-6 25-10 29-11 26-8 16-9 17-5-1-25-13-10-6-22-12-16-9-12-6-23-13-34-18-23-13-22-12-6-2 2-4 9-6 16-7 21-7z" fill="#EBAA11"/>
<path transform="translate(1273,826)" d="m0 0 3 3 10 19 12 29 8 27 6 28v11l-2 4-7 4-7 1h-146l-23-3-12-4-20-9-15-8 3-2 29-15 19-10 24-13 28-15 27-14 16-9 42-21z" fill="#DC9B3D"/>
<path transform="translate(972,983)" d="m0 0h348l8 4 5 6 2 5-1 8-6 8-4 3-4 1h-393l-7-2-6-5-3-6v-9l3-6 5-4 5-2z" fill="#322528"/>
<path transform="translate(1364,901)" d="m0 0 10 1 9 6 23 23 8 7 7 7 8 7 17 16 16 16 2 6v14l-1 12-6 9-5 5-15 14-8 7-14 13-8 7-4 2-1 3-8 7-11 11-8 5-3 1h-10l-7-4-4-5-2-5v-8l6-9 11-10 8-7 9-9 8-7 14-13 11-9 11-11-2-4-31-31-8-7-12-12-8-7-11-10-5-8-1-9 4-7 5-5z" fill="#302426"/>
<path transform="translate(1256,795)" d="m0 0 6 2 8 5 5 6 1 8-3 11-19 10-25 13-16 8-23 12-26 14-22 12-42 22-17 9-10 3-8-1-7-5-4-8v-9l6-10 42-21 14-8 16-8 12-7 16-8 38-20 15-8 12-6 18-10z" fill="#2E2325"/>
<path transform="translate(1069,1074)" d="m0 0 10 3 26 14 21 12 34 18 16 9 12 7 16 8 14 8 42 23 8 4 4 9v8l-5 9-11 5-12-1-21-12-22-13-35-19-23-13-29-16-28-15-16-9-11-7-4-5-2-7-1-3 3-5 7-7z" fill="#2E2325"/>
<path transform="translate(825,1135)" d="m0 0h6l12 5 13 6 17 2 3 1h3 27l3-1h9l5 3 4 7v3l2 1 3 6 2 14 3 11 4 13v7l2 9 1 7 2 5 2 6v5l2 6 1 7h-3l2 9 3 8 3 20 5 16 2 18 3 14-1 2 2 1h1l3 1-4 3h-5l-4-1-16 2h-45l-10-1-3-2-9-1-16-1v-2l-17-2-5-3-12-1-4-2-7-2-3-2-16-3v-2l-5-1-5-3-9-3-5-3-30-15-3-3-11-6v-2l-6-2-13-10-2-1v-2l-5-2-10-8v-2h-2l-2-4 1-6h2l2-6 2-2-2-1 5-10 4-5 7-2 9-7 8-5 8-4h3v-2h2v-2h2v-2h2v-2l4-4h2v-2l7-6h2l1-3 3-3 7-4 10-10 10-8 3-1v-2l7-6 1-3 5-3 4-3h2l4-2v-2l9-6zm1 2-10 8-10 9-10 8-13 12-8 7-10 9-11 9-13 12-8 7-11 10-11 9-15 14-5 4-1 3 3 6 9 7 14 10 10 7 19 12 23 12 20 9 19 7 18 6 29 7 44 7h50l11-2 3-2v-8l-5-25-9-41-5-22-8-36-3-15-7-32-4-12-3-2-19 2h-18l-24-4-16-6-12-5z" fill="#323036"/>
<path transform="translate(641,792)" d="m0 0 7 1 4 3v2l4 2 3 2v2l4 2v2h2v2l4 2 8 7 6 7 6 5 5 5v2l4 1 4 4v2l4 2 3 2v2l5 2 5 6 3 2v2l4 2 7 6v2l4 2 5 5 9 8v2l4 2 4 3v2l4 2 4 3v2l4 2 7 8 1 2-1 10-4 8-6 15-3 9-4 11-2 19-1 24 1 18v11l-3 4-8 2-47 2-29 3-17 2-37 2-24 3-16 1-4-5-4-24-1-19 1-41 2-22 3-12 2-13 3-15 3-6 2-9 3-12 3-5 3-9 3-7 9-17 4-8 1-4h2l2-7 5-7 4-7 8-12 7-6zm0 3-6 7-7 10-9 15-14 27-9 20-11 33-5 21-6 34-1 20v31l1 23 2 13 3 6 6 1 21-3 60-4 36-4 45-3 7-2 1-1-1-37 1-19 2-14 9-27 6-14 4-8-2-5-15-15-8-7-17-16-10-9-16-15-7-7-8-7-24-22-8-7-3-3h-2v-2l-13-10z" fill="#313638"/>
<path transform="translate(753,1072)" d="m0 0h15l7 7v3l3 1 5 9 10 12v3h2l4 10-2 4-4 5-7 6-2 2-1 4-5 5-14 10-6 7h-2l-2 4-6 4v-2l-14 11-3 1v2l-11 9-13 13-14 13-7 6h-2l-2 4h-2l-2 4-9 5h-8l-6-4-4-5v-2l-4-2-12-15-6-9-7-11v-2l-2-1-4-7-4-6-8-16-4-7-4-11-4-10-3-8-5-15-1-5v-10l10-2 18-1 14-1 2-1 28-2 26-2 36-2 26-3zm-4 5-61 5-31 2-40 4-17 1-12 2-1 1 1 9 7 20 6 15 4 9 8 16 9 16 8 12 10 14 11 13 7 8 7 5 7-2 13-12 6-5v-2l4-2 10-9 8-7 12-11 2-1v-2l4-2 8-6 13-13 8-7 13-11 2-1v-2l4-2 14-14v-6l-15-20-10-15z" fill="#323036"/>
<path transform="translate(826,1137)" d="m0 0 25 10 16 4 14 2h18l19-2 4 4 6 23 5 23 6 29 5 23 6 27 9 41 3 15v8l-7 3-7 1h-50l-44-7-36-9-25-9-21-9-19-10-13-7-11-7-12-8-12-9-13-10-2-6 4-5 8-7 10-9 11-9 16-15 8-7 14-12 10-9 8-7 15-13 10-9 8-7zm-2 5-13 11-12 11-8 7-5 4v2l-5 2v2l-4 2-5 4v2l-4 2-5 4v2l-4 2-10 8v2l-4 2-10 9-6 5v2l-4 2-8 8-8 6v2l-4 2-8 7-1 8 8 7 11 8 14 10 13 8 10 6 19 10 19 8 24 9 14 4 19 5 31 5 12 2 10 1h35l16-1 7-3v-7l-5-27-4-16-6-29-9-39-8-35-3-16-3-12-2-4-2-1h-10l-8 1h-16l-17-2-17-5-19-7z" fill="#295F8F"/>
<path transform="translate(1054,1087)" d="m0 0h4l2 6 4 2v2l-5-1v3h2v3l4 2 5 3 10 5 5-1v4l2 1v2l5 1 6 1v-5l1 2 5 1 12 5 15 10-1 4 5 3 1-2h2l1 2h3v2l4 1 4 3 14 6 1 2-1 3 8-1 10 6 3 5v2l4 1 2 1v2l7 1 3 1 1 2h3v-3l-5-1v-1l7-1 10 6v2l-5-1 2 5 2 1v2l4 1 4 2 4 6 3 1v2h4v2l5 2 5 4 2-1 1 4-4 1-21-12-22-13-35-19-23-13-29-16-28-15-16-9-11-7-4-5-2-7-1-3z" fill="#323036"/>
<path transform="translate(641,795)" d="m0 0 5 2 10 8v2l4 2 7 7 8 7 24 22 8 7 10 10 8 7 17 16 10 9 16 15 7 7 1 4-7 15-6 15-6 19-2 14-1 19v12l1 25-2 2-17 2-45 3-25 3-60 4-21 3-6-1-3-6-2-13-1-23v-31l1-20 6-34 5-21 9-27 8-20 14-28 10-17 7-10 7-9zm-1 4-3 3-3 5-9 14-9 15-9 18-10 22-10 31-4 18-5 26-2 13-1 28v19l1 24 1 11 3 6h14l21-2 59-4 24-3 40-3 12-2 2-3v-41l2-20 3-12 7-21 9-20-1-5-12-12h-2v-2h-2v-2l-8-7-32-30-17-16-12-11-8-7-20-18-13-11z" fill="#DD738F"/>
<path transform="translate(948,1128)" d="m0 0 3 1 6 22 3 17 4 15 5 23 4 14 1 11 6 21 4 20 5 21 2 12 6 22 2 12 5 18 1 8h-5l-2-2-5-15-1-4-2-2-2-9-6-26-1-17-3-9-2-9-2-10-1-14-3-7-4-26-3-7-4-15-2-10-9-14v-8l3-2 2 3-1-12-1-1-3-14z" fill="#323137"/>
<path transform="translate(641,792)" d="m0 0m-2 1 9 3 7 7-1 2-9-8-4-1-9 11-12 20-14 27-9 20-11 33-5 21-6 34-1 20v31l1 32h-1l-2-23v-48l2-23 2-11v-12l4-19 3-6 2-9 3-12 3-5 3-9 3-7 9-17 4-8 1-4h2l2-7 5-7 4-7 8-12z" fill="#302C30"/>
<path transform="translate(948,1280)" d="m0 0h2l9 41 3 15v8l-7 3-7 1h-50l-44-7-36-9-25-9-7-3 1-2 6 1 18 7 17 5 19 5 31 5 12 2 10 1h35l16-1 6-2v-7l-5-27-4-16-1-9z" fill="#295C91"/>
<path transform="translate(642,792)" d="m0 0 6 1 4 3v2l4 2 3 2v2l4 2v2h2v2l4 2 8 7 6 7 6 5 5 5v2l4 1 4 4v2l4 2 3 2v2l5 2 5 6 3 2v2l4 2 7 6v2l4 2 5 5 9 8v2l4 2 4 3v2l4 2 4 3v2l4 2 7 8 1 2v6l-5 2 1-6-7-8-9-9-8-7-17-16-10-9-16-15-7-7-8-7-24-22-8-7-5-4-4-6-6-5-5-2z" fill="#313335"/>
<path transform="translate(915,1151)" d="m0 0 5 1 3 7 5 19 5 23 6 29 5 23 5 22v7h-3l-4-20-9-39-8-35-3-16-4-16h-12l-8 1h-16l-8-1v-2l25 1v-2z" fill="#2B6789"/>
<path transform="translate(576,936)" d="m0 0 1 4-3 18-1 16v48l1 24-2-3-2-12-1-19 1-41 2-22 3-12z" fill="#333137"/>
<path transform="translate(751,845)" d="m0 0 4 2 12 11 9 8-1 2-24-22z" fill="#DF433F"/>
<path transform="translate(768,1310)" d="m0 0 6 1 9 4 4 2v2l-6-1-13-6z" fill="#2B6C85"/>
<path transform="translate(1066,1076)" d="m0 0 4 1v5l-7 1-1-4z" fill="#3B333A"/>
<path transform="translate(754,1039)" d="m0 0 2 1-3 3-5 1h-9l-3-2 17-2z" fill="#2F4538"/>
<path transform="translate(640,794)" d="m0 0 6 1 8 7v3l-9-8-4-1-4 3 2-4z" fill="#2E2626"/>
<path transform="translate(970,1323)" d="m0 0 4 4 1 5h2l-2 4-3-3z" fill="#333137"/>
<path transform="translate(1074,1070)" d="m0 0h3v6l-6-1 2-4z" fill="#DD9B3D"/>
</svg>
